<?xml version="1.0" standalone="no"?><!DOCTYPE svg PUBLIC "-//W3C//DTD SVG 1.1//EN" "http://www.w3.org/Graphics/SVG/1.1/DTD/svg11.dtd"><svg t="1629772689806" class="icon" viewBox="0 0 1339 1024" version="1.1" xmlns="http://www.w3.org/2000/svg" p-id="4639" width="167.375" height="128" xmlns:xlink="http://www.w3.org/1999/xlink"><defs><style type="text/css"></style></defs><path d="M380.770252 380.770252m-380.770252 0a380.770252 380.770252 0 1 0 761.540505 0 380.770252 380.770252 0 1 0-761.540505 0Z" fill="#FFD9D9" p-id="4640"></path><path d="M1230.431873 915.208499m-108.791501 0a108.791501 108.791501 0 1 0 217.583001 0 108.791501 108.791501 0 1 0-217.583001 0Z" fill="#FFD9D9" p-id="4641"></path><path d="M474.058964 826.543426H170.530677a67.994688 67.994688 0 0 1-67.994688-67.994688V359.283931a67.994688 67.994688 0 0 1 67.994688-67.994688H777.85923a67.994688 67.994688 0 0 1 67.994688 67.994688v36.173174a13.870916 13.870916 0 0 1-13.598938 13.598937 13.598938 13.598938 0 0 1-13.598938-13.598937v-36.173174a40.796813 40.796813 0 0 0-40.796812-40.796813H170.530677a40.796813 40.796813 0 0 0-40.796812 40.796813v399.264807a40.796813 40.796813 0 0 0 40.796812 40.796813h303.528287a13.598938 13.598938 0 0 1 13.598938 13.598938 13.598938 13.598938 0 0 1-13.598938 13.598937z" fill="#2D2F33" p-id="4642"></path><path d="M1201.602125 979.123506H594.273572a67.994688 67.994688 0 0 1-67.994688-67.994688V512.135989a67.994688 67.994688 0 0 1 67.994688-67.994688h607.328553a67.994688 67.994688 0 0 1 67.994688 67.994688V911.128818a67.994688 67.994688 0 0 1-67.994688 67.994688zM594.273572 471.339177a40.796813 40.796813 0 0 0-40.796812 40.796812V911.128818a40.796813 40.796813 0 0 0 40.796812 40.796813h607.328553a40.796813 40.796813 0 0 0 40.796813-40.796813V512.135989a40.796813 40.796813 0 0 0-40.796813-40.796812z" fill="#2D2F33" p-id="4643"></path><path d="M847.213811 788.73838a12.239044 12.239044 0 0 1-6.799468-1.903851 13.05498 13.05498 0 0 1-6.799469-11.695087v-159.651527a13.05498 13.05498 0 0 1 6.799469-11.695086 13.598938 13.598938 0 0 1 13.598937 0l138.437185 79.689774a13.598938 13.598938 0 0 1 6.799469 11.695086 13.326959 13.326959 0 0 1-6.799469 11.695087l-138.437185 79.689774a12.783001 12.783001 0 0 1-6.799469 2.17583z m13.598938-149.588314v112.599204l97.640372-56.299602zM1255.997875 875.227623H539.877822a13.870916 13.870916 0 0 1-13.598938-13.598938 13.598938 13.598938 0 0 1 13.598938-13.598937h716.120053a13.598938 13.598938 0 0 1 13.598938 13.598937 13.870916 13.870916 0 0 1-13.598938 13.598938zM252.66826 826.543426a13.870916 13.870916 0 0 1-13.598937-13.598937V304.888181a13.870916 13.870916 0 0 1 13.598937-13.598938 13.598938 13.598938 0 0 1 13.598938 13.598938v508.056308a13.598938 13.598938 0 0 1-13.598938 13.598937z" fill="#2D2F33" p-id="4644"></path><path d="M707.144754 979.123506a13.598938 13.598938 0 0 1-13.598937-13.598938v-103.895883a13.598938 13.598938 0 0 1 13.598937-13.598937 13.598938 13.598938 0 0 1 13.598938 13.598937v103.895883a13.598938 13.598938 0 0 1-13.598938 13.598938zM832.25498 979.123506a13.598938 13.598938 0 0 1-13.598938-13.598938v-103.895883a13.598938 13.598938 0 0 1 13.598938-13.598937 13.598938 13.598938 0 0 1 13.598938 13.598937v103.895883a13.598938 13.598938 0 0 1-13.598938 13.598938zM958.453121 979.123506a13.598938 13.598938 0 0 1-13.598938-13.598938v-103.895883a13.598938 13.598938 0 0 1 13.598938-13.598937 13.598938 13.598938 0 0 1 13.598937 13.598937v103.895883a13.598938 13.598938 0 0 1-13.598937 13.598938zM1084.651262 979.123506a13.598938 13.598938 0 0 1-13.598938-13.598938v-103.895883a13.598938 13.598938 0 0 1 13.598938-13.598937 13.598938 13.598938 0 0 1 13.598937 13.598937v103.895883a13.598938 13.598938 0 0 1-13.598937 13.598938zM252.66826 421.567065h-135.989376a13.598938 13.598938 0 1 1 0-27.197875h135.989376a13.598938 13.598938 0 0 1 0 27.197875zM252.66826 518.391501h-135.989376a13.598938 13.598938 0 0 1-13.598937-13.598938 13.598938 13.598938 0 0 1 13.598937-13.598938h135.989376a13.598938 13.598938 0 0 1 13.598938 13.598938 13.598938 13.598938 0 0 1-13.598938 13.598938zM252.66826 615.215936h-135.989376a13.598938 13.598938 0 0 1-13.598937-13.598937 13.598938 13.598938 0 0 1 13.598937-13.598938h135.989376a13.598938 13.598938 0 0 1 13.598938 13.598938 13.598938 13.598938 0 0 1-13.598938 13.598937zM252.66826 711.768393h-135.989376a13.598938 13.598938 0 0 1-13.598937-13.598937 13.598938 13.598938 0 0 1 13.598937-13.598938h135.989376a13.598938 13.598938 0 0 1 13.598938 13.598938 13.598938 13.598938 0 0 1-13.598938 13.598937z" fill="#2D2F33" p-id="4645"></path></svg>